<?xml version="1.0" standalone="no"?>
<!DOCTYPE svg PUBLIC "-//W3C//DTD SVG 20010904//EN"
 "http://www.w3.org/TR/2001/REC-SVG-20010904/DTD/svg10.dtd">
<svg version="1.0" xmlns="http://www.w3.org/2000/svg" aria-hidden="true" role="img"
 width="800.000000pt" height="800.000000pt" viewBox="0 0 800.000000 800.000000"
 preserveAspectRatio="xMidYMid meet">

<g transform="translate(0.000000,800.000000) scale(0.100000,-0.100000)"
fill="#000000" stroke="none">
<path d="M3670 7710 c-769 -73 -1458 -355 -2050 -839 -136 -111 -393 -368
-502 -501 -172 -212 -403 -561 -382 -579 5 -4 29 -13 54 -20 25 -8 75 -28 111
-47 l66 -33 77 124 c386 625 981 1126 1656 1395 291 116 604 194 935 232 143
16 569 16 710 0 711 -84 1326 -344 1862 -789 125 -103 376 -359 475 -483 98
-122 209 -282 277 -397 l54 -90 76 37 c42 21 95 44 119 51 23 7 42 16 42 21 0
14 -130 226 -206 334 -418 597 -994 1056 -1668 1328 -293 119 -576 192 -936
241 -136 19 -626 28 -770 15z"/>
<path d="M3925 6774 c-243 -33 -371 -79 -534 -194 -476 -336 -584 -1011 -236
-1475 225 -300 564 -454 938 -423 297 24 573 180 756 427 196 264 254 636 147
949 -125 366 -441 639 -811 701 -72 12 -218 21 -260 15z m233 -280 c367 -76
623 -391 623 -769 0 -397 -279 -718 -673 -776 -335 -49 -674 134 -818 442 -96
206 -96 462 0 668 153 327 515 508 868 435z"/>
<path d="M425 5535 c-405 -88 -563 -584 -283 -890 67 -74 135 -118 235 -151
69 -23 89 -26 183 -22 113 5 192 27 262 73 l38 25 157 -79 c751 -375 1655
-633 2477 -707 94 -8 198 -18 231 -22 l60 -7 -757 -1125 c-560 -833 -762
-1125 -775 -1124 -10 1 -51 8 -91 15 -179 33 -389 -50 -503 -197 -241 -312
-96 -748 285 -859 80 -23 238 -17 319 13 150 54 273 176 329 327 19 51 23 79
22 185 0 143 -15 194 -86 301 -29 44 -39 66 -32 76 72 112 1500 2232 1504
2232 3 0 183 -266 402 -592 218 -326 557 -831 754 -1124 l357 -532 -25 -33
c-71 -93 -109 -208 -109 -333 0 -152 51 -273 157 -379 106 -107 228 -156 384
-156 151 0 275 52 380 159 167 170 204 400 100 616 -101 210 -341 336 -562
296 -40 -7 -81 -14 -92 -15 -14 -1 -202 272 -771 1119 -415 616 -752 1122
-750 1124 2 2 82 7 177 12 570 28 1096 127 1616 304 356 121 664 259 1057 475
l60 33 41 -27 c77 -50 140 -69 259 -74 100 -4 117 -2 189 22 319 108 465 456
315 755 -90 181 -283 300 -485 301 -67 0 -193 -33 -257 -67 -116 -63 -220
-195 -261 -332 -22 -76 -21 -209 3 -296 15 -54 17 -73 8 -81 -7 -7 -77 -46
-156 -88 -668 -355 -1332 -558 -2101 -642 -199 -22 -750 -30 -977 -15 -181 12
-494 49 -658 77 -628 106 -1284 314 -1832 579 l-192 93 21 54 c26 67 35 215
18 289 -33 144 -138 287 -261 357 -112 64 -257 85 -384 57z m230 -279 c54 -25
119 -90 140 -140 54 -130 0 -282 -125 -351 -48 -26 -65 -30 -130 -30 -114 1
-197 51 -246 151 -49 101 -29 230 49 313 76 80 210 105 312 57z m6923 -2 c58
-29 106 -79 133 -138 21 -47 24 -153 6 -203 -51 -137 -199 -210 -342 -169 -79
23 -156 100 -179 176 -20 66 -20 103 -2 164 38 125 132 194 267 195 51 1 76
-5 117 -25z m-5383 -4018 c105 -49 160 -135 159 -251 -2 -299 -413 -378 -529
-101 -24 56 -19 162 9 221 64 135 226 194 361 131z m3807 14 c53 -15 117 -67
152 -123 23 -38 30 -62 34 -122 4 -69 2 -80 -27 -139 -46 -95 -143 -156 -246
-156 -113 0 -229 87 -261 195 -41 144 31 291 169 342 40 15 131 16 179 3z"/>
<path d="M273 3948 c7 -368 34 -581 111 -880 158 -605 467 -1166 893 -1617
l89 -95 27 47 c15 26 50 74 78 107 l50 60 -109 123 c-418 472 -691 1016 -812
1617 -48 234 -63 389 -64 651 l-1 237 -87 11 c-49 6 -99 16 -114 21 -14 6 -35
10 -46 10 -20 0 -20 -2 -15 -292z"/>
<path d="M7630 4225 c-30 -7 -84 -16 -120 -20 l-65 -6 -1 -222 c0 -228 -10
-356 -44 -557 -104 -614 -375 -1192 -781 -1665 -42 -49 -95 -107 -117 -129
l-40 -38 54 -64 c29 -35 65 -82 79 -104 14 -22 29 -40 34 -40 13 0 209 221
303 342 321 411 557 904 677 1408 67 281 91 474 98 796 5 247 2 315 -15 313
-4 -1 -32 -7 -62 -14z"/>
<path d="M5055 708 c-201 -64 -463 -120 -710 -150 -58 -7 -213 -12 -370 -12
-218 1 -301 5 -429 23 -193 26 -387 68 -565 121 -73 23 -134 39 -136 38 -1 -2
-18 -38 -38 -81 -20 -43 -46 -91 -57 -107 -11 -15 -20 -32 -20 -37 0 -23 388
-129 611 -167 256 -44 341 -51 649 -51 366 0 562 22 886 100 130 31 394 111
394 120 0 2 -15 27 -34 55 -19 29 -45 78 -57 109 -12 31 -25 59 -28 62 -3 3
-46 -7 -96 -23z"/>
</g>
</svg>
